<svg id="Layer_1" data-name="Layer 1" xmlns="http://www.w3.org/2000/svg" viewBox="0 0 221.5 175.41"><defs><style>.cls-1{fill:#932aff;}.cls-1,.cls-2{fill-rule:evenodd;}.cls-2{fill:#3c10ad;}</style></defs><path class="cls-1" d="M66.45,40.37,44.3,78.73,22.15,117.1h88.6l44.3-76.73H66.45m0,76.73L88.6,78.73H0L44.3,2H221.5L132.9,155.47H44.3Z" transform="translate(0 -2)"/><path class="cls-1" d="M66.45,40.37,44.3,78.73,22.15,117.1h88.6l44.3-76.73H66.45m0,76.73L88.6,78.73H0L44.3,2H221.5L132.9,155.47H44.3Z" transform="translate(0 -2)"/><polygon class="cls-2" points="31.64 98.67 44.3 76.73 0 76.73 0 98.67 31.64 98.67"/><path class="cls-2" d="M44.3,78.73H57l9.48-16.42h75.94c2.49-4.32,6.41-11.12,12.66-21.94H66.45Z" transform="translate(0 -2)"/><polygon class="cls-2" points="88.6 76.73 66.45 115.1 79.12 115.1 88.6 98.67 88.6 76.73"/><polygon class="cls-2" points="66.45 115.1 22.15 115.1 22.15 137.04 53.79 137.04 66.45 115.1"/><polygon class="cls-2" points="132.9 153.47 44.3 153.47 44.3 175.4 132.9 175.41 221.5 21.94 221.5 0 132.9 153.47"/></svg>
